<?xml version="1.0" encoding="iso-8859-1"?>
<!-- Generator: Adobe Illustrator 18.1.1, SVG Export Plug-In . SVG Version: 6.00 Build 0)  -->
<svg version="1.1" id="Capa_1" xmlns="http://www.w3.org/2000/svg" xmlns:xlink="http://www.w3.org/1999/xlink" x="0px" y="0px"
	 viewBox="0 0 17.391 17.391" style="enable-background:new 0 0 17.391 17.391;" xml:space="preserve">
<g>
	<path style="fill:#010002;" d="M5.669,5.228c0.453,0,0.82,0.367,0.82,0.82s-0.367,0.82-0.82,0.82s-0.82-0.367-0.82-0.82
		C4.849,5.596,5.216,5.228,5.669,5.228z M5.702,8.313c1.103,0,1.997,0.894,1.997,1.997s-0.894,1.997-1.997,1.997
		s-1.997-0.894-1.997-1.997S4.599,8.313,5.702,8.313z M11.063,9.38c0.499,0,0.903,0.404,0.903,0.903s-0.404,0.903-0.903,0.903
		s-0.903-0.404-0.903-0.903C10.16,9.784,10.564,9.38,11.063,9.38z M17.298,11.924l0.017-0.006c-0.895-2.669-2.403-5.18-4.527-7.306
		C10.714,2.54,8.277,1.063,5.681,0.158C5.471,0.059,5.239,0,4.993,0c-0.9,0-1.63,0.728-1.63,1.629c0,0.728,0.482,1.338,1.141,1.547
		L0.008,17.391l14.197-4.489c0.206,0.664,0.818,1.149,1.549,1.149c0.899,0,1.628-0.73,1.628-1.629
		C17.383,12.247,17.349,12.082,17.298,11.924z M10.448,13.223c-0.055-0.064-0.109-0.131-0.169-0.191
		c-1.009-1.009-2.644-1.009-3.654,0c-0.456,0.457-0.705,1.04-0.749,1.635l-4.601,1.456L5.23,3.615
		c1.929,0.647,3.743,1.735,5.28,3.272c1.538,1.536,2.626,3.351,3.271,5.28C13.782,12.167,10.448,13.223,10.448,13.223z"/>
</g>
<g>
</g>
<g>
</g>
<g>
</g>
<g>
</g>
<g>
</g>
<g>
</g>
<g>
</g>
<g>
</g>
<g>
</g>
<g>
</g>
<g>
</g>
<g>
</g>
<g>
</g>
<g>
</g>
<g>
</g>
</svg>
